<svg width="119" height="118" viewBox="0 0 119 118" fill="none" xmlns="http://www.w3.org/2000/svg">
<path fill-rule="evenodd" clip-rule="evenodd" d="M70.6486 86.0735C73.8939 81.6087 77.1829 77.1891 80.4945 72.787C73.5525 84.3257 66.866 96.0265 60.2851 107.726C59.371 109.351 58.4471 110.971 57.5206 112.596L57.5202 112.597L57.5198 112.597L57.5175 112.602C56.5922 114.224 55.6645 115.851 54.746 117.484C54.7067 117.554 54.6624 117.64 54.6176 117.731C56.3619 117.857 58.112 117.906 59.8623 117.879C60.1525 117.468 60.4511 117.044 60.739 116.636L60.7394 116.635C61.2775 115.871 61.7776 115.161 62.113 114.693C66.341 108.791 70.6638 102.984 74.9961 97.1635L74.9964 97.1631L74.9969 97.1624C77.6473 93.6018 80.3013 90.0363 82.9394 86.4415C87.3288 80.4602 91.5201 74.2618 95.6982 68.0828C97.0542 66.0774 98.4088 64.0741 99.7683 62.081C102.179 58.5469 104.608 55.0395 107.097 51.5941C105.192 54.6163 103.275 57.6362 101.358 60.6581L101.356 60.6606L101.356 60.6607C94.1315 72.0473 86.8891 83.4616 80.122 95.1291C79.6408 95.9586 79.1624 96.7871 78.685 97.6139C76.6822 101.082 74.6955 104.523 72.5887 107.9C72.4235 108.165 72.2164 108.504 72.0302 108.831C71.8616 109.128 71.6519 109.513 71.5359 109.832C71.5048 109.917 71.4608 110.049 71.4336 110.204L71.4329 110.209C71.4165 110.301 71.3446 110.71 71.5467 111.156C71.6743 111.438 71.9108 111.729 72.2785 111.906C72.6218 112.071 72.9431 112.071 73.1453 112.045C73.5022 112 73.7602 111.841 73.8433 111.789C74.0612 111.652 74.2673 111.466 74.4338 111.305C74.6204 111.125 74.8413 110.894 75.0996 110.61C76.2967 109.296 77.469 107.954 78.6201 106.588C76.3938 109.847 74.1829 113.123 72.0284 116.431C73.7255 116.048 75.4105 115.59 77.0783 115.056C81.2557 108.868 86.3132 101.282 88.9137 97.2967C91.3869 93.5062 93.832 89.6725 96.2815 85.8318L96.284 85.8279C97.2668 84.2868 98.2504 82.7446 99.2368 81.2036C103.667 74.368 108.123 67.5866 113.025 61.1767C113.268 60.8585 113.452 60.6154 113.582 60.4422C113.683 60.3066 113.81 60.1374 113.877 60.027C113.885 60.0137 113.931 59.9399 113.974 59.8416C113.984 59.8186 114.062 59.6491 114.09 59.418C114.095 59.3476 114.087 59.2201 114.069 59.0799C115.427 57.1982 116.807 55.3371 118.212 53.5015C118.096 52.0822 117.93 50.6654 117.713 49.2539C114.113 53.8227 110.686 58.5645 107.369 63.3928C104.447 67.1113 100.692 71.9361 98.8279 74.4326C96.2584 77.8748 93.7595 81.3749 91.2641 84.8701L91.2639 84.8703C88.4585 88.7996 85.6575 92.7228 82.7654 96.5508C89.5013 84.9424 96.6556 73.6683 103.83 62.3632L103.83 62.3629C107.999 55.7929 112.175 49.2124 116.279 42.5497C115.362 39.217 114.147 35.9424 112.631 32.7663C110.915 35.2051 109.233 37.6761 107.56 40.1347L107.559 40.135C106.2 42.1322 104.846 44.1213 103.484 46.0785C94.4313 59.0859 85.4693 72.1756 76.5656 85.2995C82.0457 75.9247 87.6561 66.631 93.4778 57.4999C93.5563 57.3769 93.8191 57.0294 94.2421 56.4702C94.3593 56.3152 94.4888 56.144 94.6301 55.9568C95.2431 55.1446 96.0109 54.1167 96.7448 53.0657C97.4724 52.0236 98.1957 50.9176 98.7032 49.9543C98.9548 49.4767 99.1816 48.9817 99.3219 48.5153C99.4375 48.1309 99.6082 47.4172 99.318 46.7208C99.2334 46.5178 98.9998 46.0503 98.4607 45.8006C102.551 39.8275 106.566 33.9358 110.322 28.4069C109.603 27.1761 108.835 25.9642 108.018 24.7737C106.148 27.2232 104.267 29.6677 102.384 32.1147C98.9455 36.5841 95.5 41.0622 92.1002 45.5953C85.7994 53.9963 79.6841 62.5319 73.6754 71.1396C76.7162 65.4584 79.8875 59.8404 83.1303 54.2638C89.1343 43.939 95.1938 33.6546 101.322 23.4074L90.7558 32.2733C90.0818 33.2423 89.4113 34.2135 88.7438 35.1866C88.7453 35.1285 88.7436 35.0614 88.7359 34.988C88.72 34.8382 88.6674 34.5518 88.4588 34.2628C88.4494 34.2499 88.4399 34.2371 88.4303 34.2246L82.9827 38.7956C82.0637 40.235 81.1475 41.6768 80.2323 43.1169L80.2315 43.1182C79.2739 44.6251 78.3174 46.1302 77.3599 47.6291C77.1095 48.0212 76.8594 48.4135 76.6097 48.8061C74.6085 51.7078 72.5689 54.5932 70.5149 57.477C69.6018 58.7589 68.6857 60.0408 67.7688 61.3237L67.7665 61.3269C63.5006 67.2959 59.2191 73.2867 55.166 79.3923C53.2186 82.3259 51.1392 85.2777 49.0213 88.2618C49.7098 86.98 50.4056 85.6962 51.107 84.4074C52.631 81.607 54.0941 78.7986 55.5505 76.0031C58.7865 69.792 61.9892 63.6445 65.7532 57.7894C65.8945 57.5696 66.0173 57.3503 66.1107 57.1509C66.1566 57.0528 66.2048 56.9396 66.2443 56.8207L66.2453 56.8178C66.2694 56.7452 66.3526 56.4952 66.3421 56.1907C66.3376 56.0612 66.3107 55.5994 65.9318 55.1936C65.4423 54.6694 64.81 54.672 64.4669 54.7538C64.1751 54.8233 63.9749 54.9622 63.9006 55.0161C63.8039 55.0861 63.7281 55.1564 63.6774 55.2066C63.4943 55.3876 63.314 55.6317 63.1486 55.8744C62.0176 57.5332 60.9421 59.2587 59.8877 60.9504L59.8876 60.9506L59.8873 60.9511C59.4438 61.6626 59.004 62.3682 58.5654 63.0604C56.9997 65.531 55.4572 68.0045 53.9241 70.4758C54.0417 70.2786 54.1559 70.0852 54.2641 69.8992C54.6288 69.2723 55.008 68.5913 55.1745 68.1292C55.2128 68.0228 55.2933 67.7891 55.3074 67.5147C55.3142 67.3829 55.3163 67.0821 55.1609 66.7499C54.967 66.3356 54.5836 66 54.0825 65.8945C53.6807 65.8098 53.3568 65.9068 53.2178 65.9563C53.0562 66.0139 52.9286 66.0871 52.848 66.1376C52.685 66.2398 52.5365 66.363 52.4166 66.4695C51.5049 67.2799 50.781 68.4429 50.2076 69.4544C49.9638 69.8845 49.7496 70.2811 49.5512 70.6486L49.5511 70.6487C49.2321 71.2395 48.9536 71.7551 48.6582 72.2134C48.2633 72.8258 47.8693 73.4387 47.4762 74.0521C47.5663 73.8536 47.6458 73.6686 47.71 73.5042C47.7745 73.3387 47.8527 73.1213 47.8963 72.9046C47.9151 72.8115 47.9547 72.5942 47.9246 72.3346C47.8989 72.1133 47.7443 71.3483 46.9149 71.0503C46.2624 70.8158 45.7323 71.1013 45.6345 71.1539L45.632 71.1553C45.4566 71.2496 45.3221 71.3614 45.2443 71.4301C45.0777 71.577 44.9084 71.763 44.7476 71.9521C44.4146 72.3437 43.9621 72.9354 43.3714 73.7518C40.9411 77.1115 38.6134 80.545 36.3094 83.9698C36.4539 83.6462 36.6098 83.2909 36.7604 82.9357C37.0048 82.359 37.2523 81.7429 37.4126 81.2524C37.4874 81.0232 37.5716 80.7379 37.6078 80.4708C37.6226 80.3621 37.6556 80.0901 37.5836 79.7814C37.5452 79.6166 37.452 79.3311 37.2065 79.0649C36.9273 78.7622 36.5506 78.5937 36.1646 78.5695C35.9137 78.5539 35.6863 78.5894 35.4884 78.6481L33.6666 80.1767C33.527 80.3678 33.3958 80.5612 33.2759 80.7453C32.9929 81.18 32.7324 81.626 32.5296 81.9773L32.4389 82.1347C32.3743 82.2467 32.3187 82.3434 32.2684 82.4291C32.233 82.4893 32.2048 82.5364 32.1826 82.5725C32.1619 82.606 32.1529 82.6193 32.1529 82.6193L32.1536 82.6183C31.8316 83.0745 31.5087 83.5301 31.1849 83.985C31.2527 83.7207 31.3163 83.4538 31.3756 83.1844C31.4588 82.8061 31.5375 82.4203 31.58 82.0874C31.5871 82.0313 31.5939 81.9723 31.5995 81.9112L20.9591 90.8397C20.6938 91.2299 20.429 91.6157 20.1643 91.9956C19.7748 92.5544 19.389 93.1119 19.0046 93.6673C19.0598 93.2445 19.1006 92.8155 19.1249 92.3787L15.6388 95.3039C15.5314 95.7336 15.4094 96.1676 15.2749 96.6097C15.2484 96.6966 15.1692 96.8915 15.0139 97.2519L14.9585 97.3804C14.8588 97.6113 14.744 97.877 14.6318 98.1511C15.5363 99.1588 16.468 100.129 17.4249 101.061C18.8295 99.1931 20.1679 97.2587 21.4835 95.3574L21.4835 95.3574L21.4838 95.357C21.8659 94.8047 22.2461 94.2552 22.6255 93.7109C23.394 92.6082 24.1312 91.5069 24.8607 90.4169L24.8608 90.4168L24.8614 90.4159C25.4262 89.5721 25.9864 88.7351 26.5531 87.9097C26.0624 88.9496 25.5141 89.9837 24.9264 91.0332C24.698 91.441 24.4168 91.8499 24.0841 92.3336C23.8595 92.6602 23.6114 93.0208 23.3404 93.4382C22.7585 94.3343 22.0792 95.4898 21.8824 96.6704C21.8567 96.8251 21.8311 97.0289 21.8407 97.2441L21.8408 97.2461C21.8465 97.3729 21.8717 97.9381 22.3396 98.3861C22.9963 99.015 23.7781 98.8079 24.0619 98.6858C24.34 98.5662 24.538 98.3908 24.6293 98.3061C24.9965 97.9653 25.4198 97.3599 25.7641 96.8486C26.119 96.3216 26.4692 95.7738 26.7944 95.2652L26.7945 95.2651C27.2239 94.5935 27.6098 93.9901 27.9052 93.5924C28.315 93.0408 28.7236 92.4884 29.1311 91.9351C28.6395 92.8861 28.1362 93.8296 27.6163 94.7641C27.5002 94.9727 27.3278 95.2763 27.1235 95.6358L27.1228 95.6372C26.5154 96.7062 25.6274 98.2693 25.1044 99.3032C24.9322 99.6434 24.7662 99.9908 24.6645 100.267L24.6618 100.274C24.6278 100.366 24.5232 100.649 24.5179 100.968L24.5178 100.971C24.516 101.075 24.5041 101.743 25.1018 102.214C25.7913 102.758 26.5206 102.475 26.6601 102.416C26.8752 102.324 27.03 102.202 27.0978 102.147C27.1833 102.077 27.2599 102.003 27.3235 101.939C27.4511 101.81 27.5903 101.651 27.7373 101.474C28.0345 101.116 28.4314 100.599 28.9443 99.903C30.8796 97.2747 32.7434 94.5963 34.5751 91.9065C32.1631 96.6041 29.8239 101.338 27.5489 106.078C27.1917 106.822 26.9325 107.373 26.7564 107.76C26.6687 107.953 26.5976 108.114 26.5439 108.242C26.5346 108.265 26.5236 108.291 26.5117 108.32C27.364 108.873 28.228 109.403 29.1028 109.908C29.1639 109.825 29.2112 109.75 29.2348 109.713L29.2391 109.706C29.3558 109.521 29.516 109.246 29.691 108.938C29.9871 108.418 30.3496 107.764 30.7131 107.108L30.7131 107.108C31.2555 106.13 31.7999 105.148 32.1287 104.6C32.3904 104.164 32.6523 103.728 32.9143 103.292C32.8944 103.516 32.8955 103.75 32.9295 103.988C32.9395 104.058 32.9638 104.203 33.0321 104.372C33.0837 104.499 33.2721 104.924 33.7748 105.169C34.3909 105.47 34.9507 105.266 35.218 105.105C35.4543 104.963 35.5935 104.791 35.6422 104.729C35.8041 104.522 35.9044 104.274 35.9235 104.227L35.9261 104.221C35.9513 104.16 35.9846 104.076 36.0079 104.017L36.029 103.963C36.0412 103.933 36.0491 103.914 36.0533 103.905C36.83 102.506 37.7497 101.18 38.7159 99.7866L38.8568 99.5834C40.1124 97.7721 41.3455 95.9467 42.5613 94.1106C40.4946 98.1611 38.5227 102.261 36.7054 106.487C35.5734 108.37 34.4934 110.274 33.4851 112.202C34.7868 112.816 36.1072 113.38 37.4435 113.895C37.745 113.507 38.0463 113.116 38.3372 112.739L38.4436 112.601L38.444 112.6C39.1382 111.7 39.7596 110.895 40.1903 110.359C46.0654 103.06 51.5148 95.3996 56.9187 87.8032L56.9188 87.8031L56.9199 87.8015C57.6772 86.737 58.4335 85.6739 59.19 84.6131C65.6439 75.5632 71.738 66.274 77.8129 57.014L77.813 57.0138L78.2001 56.4237C78.7987 55.5113 79.3971 54.5993 79.9959 53.6878C73.361 65.1357 67.0118 76.8096 61.4743 88.8776C57.9299 94.0908 54.4044 99.3146 50.8809 104.536L50.8789 104.539C48.343 108.296 45.8082 112.052 43.268 115.801C44.9984 116.271 46.7472 116.661 48.5086 116.973C52.4423 111.587 56.3059 106.149 60.1606 100.723L60.1613 100.722C63.6492 95.8135 67.1298 90.9147 70.6486 86.0735ZM118.296 62.0021C118.413 60.0918 118.439 58.1755 118.372 56.2603C118.024 56.8185 117.674 57.3738 117.324 57.9264C117.175 58.1618 117.026 58.3969 116.877 58.6316C116.04 59.9518 115.211 61.2587 114.454 62.5238C107.293 74.4923 99.9868 86.4804 91.7558 97.6583C91.5847 97.8906 91.3309 98.2271 91.0431 98.6085L90.9467 98.7363C90.6236 99.1646 90.2705 99.6334 89.9704 100.041C89.6867 100.426 89.4029 100.82 89.2531 101.067C89.222 101.119 89.1464 101.244 89.0875 101.391L89.0859 101.396C89.0689 101.437 88.9608 101.699 88.9752 102.038C88.9836 102.235 89.0444 102.688 89.442 103.067C89.8657 103.47 90.3626 103.5 90.6215 103.475C91.0157 103.439 91.293 103.25 91.324 103.228L91.3265 103.227C91.411 103.172 91.4778 103.117 91.5162 103.085C91.5975 103.016 91.6776 102.939 91.7466 102.87C93.3212 101.295 94.7667 99.3596 96.1025 97.571C96.6755 96.8037 97.2283 96.0635 97.7624 95.3905C100.57 91.8525 103.231 88.1851 105.87 84.548C106.56 83.5972 107.248 82.6485 107.938 81.7047C109.5 79.5642 111.07 77.4442 112.68 75.3666C112.578 75.5315 112.479 75.6944 112.383 75.8549L110.921 78.3034L110.916 78.3102C106.994 84.8778 103.071 91.4457 99.1345 98.0037C97.1212 100.966 95.1905 103.967 93.3085 106.93C94.6168 106.001 95.8982 105.012 97.149 103.962C98.658 102.696 100.088 101.371 101.439 99.9931C101.513 99.8711 101.586 99.7491 101.659 99.6271C104.513 95.4304 107.509 91.3517 110.76 87.59C112.225 84.9883 113.482 82.2945 114.529 79.5341C114.439 79.5898 114.352 79.6479 114.27 79.7058C113.861 79.9949 113.381 80.418 112.824 80.9676L113.495 79.8443L114.959 77.3933C115.176 77.029 115.413 76.6493 115.666 76.253C116.86 72.4476 117.667 68.5385 118.081 64.5894C117.891 64.7621 117.676 64.9638 117.466 65.1639C116.907 65.6957 116.26 66.3354 116.123 66.489C115.521 67.1639 114.929 67.8459 114.346 68.5341C115.244 67.0432 116.138 65.5526 117.029 64.064C117.432 63.3895 117.857 62.7029 118.296 62.0021ZM98.6828 48.2802C98.6826 48.2806 98.6802 48.2836 98.6758 48.2887C98.6806 48.2824 98.683 48.2798 98.6828 48.2802ZM52.3506 67.1165L52.3521 67.1122C52.3564 67.1005 52.3567 67.0981 52.3546 67.1039C52.3537 67.1065 52.3523 67.1107 52.3506 67.1165ZM27.4684 101.338C27.4689 101.337 27.4726 101.327 27.4778 101.309C27.4717 101.326 27.4689 101.335 27.4684 101.337C27.4684 101.337 27.4684 101.338 27.4684 101.338Z" fill="#8FC31F"/>
<path fill-rule="evenodd" clip-rule="evenodd" d="M84.507 5.41751C83.5764 4.98771 82.6365 4.58288 81.6882 4.20312C79.7982 6.85557 77.9315 9.52339 76.0779 12.1957C75.7469 11.9458 75.3768 11.8878 75.1481 11.8887C74.8677 11.8898 74.6535 11.9676 74.5685 12.0007C74.2682 12.1176 74.0002 12.3294 73.9002 12.4084L73.8944 12.413C73.6002 12.6454 73.2563 12.9646 73.0682 13.1609C70.2965 16.0549 67.7049 19.1387 65.2204 22.2762C67.828 18.0449 70.4216 13.8018 72.9754 9.53658C73.2399 9.09477 73.5332 8.63279 73.838 8.15273L73.8383 8.15226C74.7736 6.67919 75.8169 5.0359 76.4686 3.28262C76.5452 3.07643 76.6177 2.8574 76.6617 2.64896C76.6729 2.59622 76.6851 2.53103 76.6945 2.45684C75.6361 2.13877 74.5701 1.8505 73.4978 1.59214C73.0815 2.06872 72.5651 2.75217 72.0485 3.45924C71.3632 4.39721 70.5897 5.50058 69.8812 6.51388L69.7013 6.77127L69.7003 6.77267C69.0579 7.69164 68.4864 8.50932 68.0826 9.06075C54.8794 27.0904 42.5018 45.7277 30.1519 64.3231L30.1518 64.3232L28.2342 67.2103C34.7785 56.4415 41.5724 45.8123 48.4486 35.2624C51.0212 31.3156 53.7134 27.3483 56.4149 23.3673L56.4149 23.3673C59.7262 18.4878 63.0514 13.5877 66.1873 8.67946C66.2085 8.64618 66.2338 8.60919 66.2759 8.54815C66.3131 8.49424 66.3675 8.41568 66.4209 8.33264C66.5274 8.16717 66.6777 7.91299 66.7776 7.59103C66.7961 7.53134 66.8351 7.39633 66.8458 7.22146C66.8533 7.1006 66.8741 6.61983 66.5096 6.17256C66.052 5.61103 65.4222 5.58989 65.1217 5.63408C64.8522 5.67372 64.6609 5.77747 64.598 5.81261C64.3771 5.93584 64.2113 6.1075 64.1936 6.12584L64.1922 6.12732C64.0944 6.22503 63.9904 6.34425 63.9532 6.38678L63.9462 6.39487C63.4121 7.00525 62.6954 8.00542 62.2507 8.62591C62.1769 8.72893 62.1106 8.82148 62.0538 8.90004C58.4062 13.9506 54.7813 19.0176 51.1797 24.101C53.1961 20.9164 55.1515 17.6959 56.9721 14.4212C57.3791 13.6892 57.6744 13.0844 57.8125 12.6269C57.8497 12.5036 57.8887 12.3492 57.9079 12.1791C57.9245 12.0313 57.9428 11.7387 57.8293 11.409C57.6919 11.0096 57.3643 10.5917 56.8202 10.4171C56.3743 10.2741 55.9946 10.3671 55.8256 10.42C55.4852 10.5267 55.2151 10.727 55.0804 10.8315C54.9088 10.9646 54.7361 11.1214 54.5729 11.2808C54.2441 11.602 53.8804 12.0061 53.5279 12.4313C51.8531 14.4514 50.2114 16.5014 48.598 18.5759C50.639 15.3741 52.6297 12.1447 54.5145 8.87388C54.7626 8.44346 54.9546 8.07888 55.0759 7.78637C55.132 7.65121 55.2083 7.44927 55.2453 7.22344C55.2635 7.11224 55.2871 6.91075 55.2473 6.66984C55.206 6.42001 55.0733 6.01131 54.6762 5.69883C54.2768 5.38454 53.845 5.35228 53.5873 5.37351C53.3411 5.39379 53.151 5.46748 53.0507 5.51157C52.8469 5.60121 52.683 5.71901 52.5906 5.78895C52.5558 5.8153 52.5207 5.84297 52.4855 5.87165C53.1734 4.86202 53.8833 3.84106 54.6009 2.80883L54.6013 2.80833L54.6013 2.80826C55.2458 1.88124 55.8966 0.945131 56.5436 0C54.4223 0.104331 52.3036 0.321916 50.1973 0.653602C50.1194 0.764473 50.0417 0.875033 49.964 0.985255C39.1653 16.3174 28.9196 32.0645 18.7188 47.8062C19.3139 46.7664 19.9092 45.7268 20.5048 44.6874C21.5967 42.7818 22.7034 40.8742 23.8131 38.9614L23.8131 38.9614C27.4386 32.7121 31.0961 26.4076 34.3754 19.9378L34.4897 19.7124C34.9316 18.8424 35.4122 17.896 35.8005 16.9052C35.8102 16.8805 35.8157 16.868 35.8253 16.846C35.8358 16.822 35.8513 16.7867 35.8827 16.7117C35.9229 16.6157 35.9872 16.457 36.0358 16.2781C36.0781 16.1224 36.1527 15.8003 36.0914 15.4222C36.0158 14.9567 35.7342 14.4518 35.176 14.1727C35.1405 14.155 35.105 14.1387 35.0694 14.1237L35.4707 13.5206C37.9472 9.79826 40.4322 6.06326 42.8563 2.29183C40.2479 3.05052 37.6773 3.99303 35.1641 5.12107C34.1729 6.41271 33.195 7.71504 32.2288 9.02628C32.1675 8.99918 32.102 8.97492 32.032 8.95412C31.8722 8.90661 31.7208 8.88923 31.5828 8.89047C32.1883 7.91268 32.7912 6.9334 33.3911 5.95249C30.7592 7.24027 28.197 8.73661 25.7277 10.4435C25.6018 10.647 25.4771 10.8508 25.3536 11.0549L25.3323 11.0445C25.2313 10.9961 25.1308 10.9592 25.032 10.9318C23.7472 11.8472 22.4884 12.8205 21.2592 13.852C11.2792 22.2262 4.73915 33.1788 1.79585 44.918C1.81767 44.917 1.83911 44.9157 1.86012 44.914C2.65267 44.8514 3.3327 44.3889 3.76547 44.0483C4.25653 43.6619 4.73742 43.1781 5.15861 42.7175C5.58558 42.2507 5.9853 41.7698 6.3101 41.3722C6.41055 41.2492 6.5002 41.1388 6.5801 41.0404L6.58046 41.0399L6.58058 41.0398C6.77752 40.7972 6.91521 40.6276 7.00944 40.5225C7.44584 40.0354 7.84147 39.5875 8.21608 39.158C7.73265 39.9589 7.05582 41.103 6.61813 42.0041C6.60175 42.0378 6.56451 42.1161 6.53151 42.2163C6.51579 42.264 6.48502 42.3639 6.46757 42.4936L6.46752 42.4939C6.45668 42.5745 6.40983 42.9227 6.58759 43.316C6.69239 43.5479 6.87834 43.799 7.17312 43.9792C7.23346 44.016 7.29386 44.0472 7.35361 44.0734C6.8806 44.9382 6.41205 45.8075 5.94959 46.6822C5.74646 47.0665 5.48279 47.5112 5.17488 48.0242L5.06856 48.2012L5.06832 48.2016C4.79552 48.6556 4.49796 49.1508 4.21398 49.6529C3.74846 50.4759 3.2573 51.4211 2.94406 52.3686C1.95811 53.9131 0.981201 55.4823 0.047912 57.0761C-0.0493784 59.5062 0.00136016 61.9436 0.201407 64.3735C0.257742 64.2867 0.312954 64.2012 0.367038 64.1175L0.367073 64.1174C0.41342 64.0457 0.45894 63.9752 0.503628 63.9063C0.844436 63.3809 1.26686 62.7101 1.70446 62.0073C1.68992 62.0414 1.65778 62.1206 1.63167 62.2186L1.63077 62.222C1.61991 62.2623 1.56889 62.452 1.58302 62.6955C1.59953 62.847 1.71351 63.2266 1.83228 63.441C2.05599 63.705 2.64478 64.045 2.97782 64.1063C3.21296 64.1042 3.58371 64.0235 3.71818 63.9683C3.80082 63.9265 3.93249 63.8456 3.98325 63.8092C4.07853 63.7378 4.14424 63.6705 4.16867 63.6451C4.22517 63.5863 4.2663 63.534 4.28104 63.5152C4.3418 63.4375 4.40733 63.3398 4.45202 63.2726C4.56041 63.1095 4.72332 62.8552 4.92781 62.5319C5.65402 61.3834 6.99914 59.2137 8.63391 56.5767L8.63503 56.5749L9.29564 55.5093C13.1692 49.2618 18.3161 40.9761 21.009 36.9275C22.2772 35.0209 23.5442 33.1163 24.8188 31.2196C23.6386 33.2833 22.4439 35.3426 21.2473 37.4053L21.2471 37.4057C20.1304 39.3307 19.0119 41.2587 17.9019 43.1959C12.3718 52.8468 6.86552 62.5102 1.36841 72.1782C2.01313 75.1328 2.88681 78.0523 3.99183 80.9091C4.864 79.5214 5.58198 78.3649 6.56007 76.7861C12.1261 67.8015 17.7658 58.8697 23.4706 49.9805C27.6856 43.8494 31.994 37.779 36.3613 31.7464L36.7125 31.2609C35.353 33.334 33.9999 35.4171 32.6652 37.5198C26.4804 47.2629 20.4387 57.1124 14.404 66.9505L14.4036 66.9511C11.1791 72.2077 7.95672 77.4611 4.71556 82.6932C5.20006 83.8337 5.72223 84.9632 6.28223 86.0798C7.05541 84.9027 8.0733 83.344 9.21253 81.5977L10.2511 80.0054L10.2526 80.0032C13.5544 74.9407 17.5133 68.8708 19.6377 65.7162C22.078 62.0925 24.4947 58.4464 26.9119 54.7995L26.9122 54.7991C32.3179 46.6434 37.7265 38.4835 43.4083 30.5597L42.6786 31.6663C40.6904 34.6807 38.6958 37.7048 36.7476 40.7763C31.0774 49.7156 25.5217 58.7574 19.9726 67.7885C15.9229 74.3794 11.8766 80.9645 7.79199 87.5C7.63703 87.7479 7.49974 87.9687 7.37955 88.1632C7.92272 89.1465 8.4962 90.1185 9.10013 91.0781C9.12622 91.0521 9.14505 91.0316 9.15503 91.0207C9.23861 90.9292 9.32179 90.817 9.36957 90.7522C9.49266 90.5852 9.6734 90.3275 9.89602 90.0044C10.793 88.7024 12.5416 86.088 14.6218 82.9626C16.0099 80.8771 17.5478 78.5608 19.0851 76.2454L19.0868 76.2427L19.0904 76.2373C19.8727 75.0591 20.6547 73.8812 21.4168 72.734C17.5259 79.2914 13.7373 85.9083 10.0885 92.5968C10.8769 93.7688 11.712 94.9205 12.5942 96.0496C13.7777 94.5592 14.8742 92.9655 15.9118 91.3745C16.6167 90.2937 17.2745 89.2469 17.9158 88.2264L17.916 88.226L17.9162 88.2257C18.7322 86.9272 19.5215 85.6711 20.3474 84.4411C24.4809 78.2848 28.5814 72.1107 32.68 65.9394L32.6803 65.9389L32.6804 65.9387C40.7779 53.7463 48.8682 41.5646 57.192 29.5524C56.2338 31.0989 55.2754 32.646 54.3179 34.1943C52.4994 37.135 50.6789 40.0752 48.8582 43.0157L48.8574 43.017C46.3542 47.0597 43.8506 51.1031 41.3511 55.1496C39.3474 58.087 37.3637 61.0372 35.3981 63.9981C28.4268 74.4988 21.5179 85.141 15.1128 96.0628L24.8559 87.8874C25.8331 86.2813 26.8053 84.674 27.7763 83.0687L27.7778 83.0662C28.6087 81.6925 29.4388 80.3202 30.2704 78.9513C34.771 71.5429 39.3116 64.1599 43.8676 56.7841C49.1802 48.997 54.6301 41.3049 60.2523 33.7462C56.8211 38.9954 53.3978 44.2513 49.9974 49.5226C48.8482 51.3039 47.3303 53.6537 45.6207 56.3002L45.6159 56.3077C41.9685 61.954 37.4498 68.9492 33.7781 74.6568C31.0823 78.8475 28.8368 82.3539 27.7279 84.1232C27.4518 84.5638 27.2392 84.9078 27.1068 85.1301C27.049 85.227 26.9794 85.3456 26.9313 85.4421C26.9196 85.4655 26.89 85.5254 26.8613 85.6007C26.8489 85.6332 26.8167 85.7197 26.7928 85.8338C26.7814 85.8942 26.7639 86.0454 26.7607 86.1369C26.7622 86.1716 26.7682 86.2193 26.7777 86.2748L34.1816 80.0622C38.344 73.8232 42.4731 67.5728 46.5999 61.3257L46.5999 61.3256C55.0369 48.554 63.4646 35.7965 72.148 23.1806C72.5656 22.5739 72.983 21.967 73.4005 21.3603L73.4008 21.3598C77.0753 16.0185 80.7476 10.6806 84.507 5.41751ZM69.1686 50.7046L65.4033 53.8641C65.2985 53.8005 65.1963 53.7203 65.1001 53.6205C64.7595 53.2671 64.701 52.869 64.6867 52.7288C64.6692 52.5576 64.6851 52.4215 64.6942 52.3578C64.7132 52.2248 64.7462 52.1216 64.7585 52.0838C64.8067 51.9359 64.8808 51.7829 64.9193 51.7038C65.0223 51.492 65.1866 51.1793 65.3932 50.7965C66.2264 49.2519 67.9377 46.2132 69.989 42.5959C71.351 40.1941 72.8654 37.5329 74.3799 34.8714C77.4401 29.4938 80.5008 24.1153 82.3056 20.8748C83.7121 18.3496 85.1863 15.8508 86.6584 13.3555L86.6585 13.3554L86.6588 13.3549C87.6839 11.6174 88.7079 9.88175 89.7072 8.14014C90.5675 8.6465 91.4172 9.17597 92.2552 9.72848C91.5371 10.9807 90.81 12.224 90.0835 13.4587C90.8239 12.406 91.5676 11.3556 92.3147 10.3078C92.3984 10.1903 92.484 10.0672 92.5717 9.9386C93.4006 10.4927 94.2179 11.0695 95.0228 11.6689C94.9332 11.7999 94.8447 11.927 94.7575 12.0493C85.7932 24.6226 77.3082 37.5677 69.1686 50.7046ZM87.5164 35.309L79.1517 42.3278C80.6411 39.5524 82.1453 36.7881 83.6472 34.0281L83.6474 34.0278C84.0086 33.364 84.3696 32.7005 84.7303 32.0372C88.3644 25.3536 91.9627 18.6816 95.3071 11.882C96.1212 12.4958 96.9223 13.133 97.7095 13.7933C96.8029 15.6266 95.879 17.4501 94.9422 19.2657C95.1539 19.0014 95.3673 18.7382 95.5825 18.4763L95.5874 18.4702L95.6017 18.4527L95.6488 18.395C95.6877 18.3474 95.7408 18.2828 95.8057 18.2046C95.9355 18.0482 96.113 17.8366 96.3207 17.596C96.7312 17.1203 97.2779 16.5095 97.8128 15.9855C98.0791 15.7246 98.3636 15.4643 98.642 15.2477C98.7527 15.1615 98.8932 15.0572 99.0556 14.9572C100.623 16.3545 102.131 17.8476 103.571 19.4357C103.026 20.0997 102.498 20.8272 101.957 21.5742L101.956 21.5749C101.731 21.8855 101.503 22.1995 101.271 22.5136C100.52 23.5286 99.7893 24.5574 99.0855 25.6014L92.25 31.337C92.9404 29.9392 93.691 28.5742 94.4877 27.2404L94.6523 26.8758L94.6533 26.8736C94.8761 26.38 95.0996 25.8847 95.3251 25.388C95.6516 24.6686 95.9868 23.9648 96.3173 23.2708L96.3173 23.2707C96.6731 22.5235 97.0235 21.7877 97.3519 21.0561C94.3486 24.7957 91.6722 28.8109 89.046 32.9078C88.5339 33.7068 88.0239 34.5071 87.5164 35.309ZM103.376 22.0011L104.787 20.8176C104.464 20.4388 104.137 20.0651 103.806 19.6964C103.691 20.4623 103.543 21.2267 103.376 22.0011ZM88.1365 7.24769C86.3971 9.5575 84.6934 11.8992 83.0193 14.2661C76.9792 23.7272 70.8926 33.1601 64.7442 42.5531C64.0226 43.6555 63.2988 44.7468 62.5778 45.8339L62.5774 45.8345L62.5773 45.8348C61.9198 46.8261 61.2646 47.8139 60.6156 48.8035C60.3843 49.1839 60.1198 49.6689 59.8106 50.2361C59.5559 50.7031 59.2709 51.2258 58.9491 51.7917C58.2675 52.99 57.4229 54.3731 56.5531 55.2429C56.5117 55.2843 56.4417 55.3523 56.3557 55.4197C56.3149 55.4517 56.2334 55.513 56.123 55.5725L56.1196 55.5743C56.0536 55.61 55.7461 55.7762 55.3207 55.754C55.0589 55.7404 54.7291 55.6525 54.4343 55.4065C54.1469 55.1668 54.0113 54.8757 53.9504 54.662C53.8481 54.3025 53.9101 54.0048 53.9244 53.936L53.925 53.9332C53.9645 53.7427 54.0344 53.5946 54.0507 53.5595C54.1383 53.37 54.2896 53.1274 54.3921 52.9647C54.54 52.7301 54.6739 52.5254 54.7921 52.3445C54.9077 52.1677 55.0084 52.0137 55.0928 51.8768C56.0624 50.3037 57.0665 48.7452 58.0808 47.1982C58.0882 47.1861 58.0955 47.1741 58.1028 47.1623C58.1133 47.1453 58.1237 47.1286 58.1339 47.1121C58.6515 46.2828 59.1694 45.4523 59.6878 44.6208L59.7069 44.5903C66.3837 33.8826 73.1594 23.0165 80.5251 12.5978C82.0067 10.2769 83.4856 7.95429 84.962 5.63C86.0335 6.13596 87.0922 6.67524 88.1365 7.24769ZM23.3857 12.8701C23.3858 12.87 23.3858 12.8717 23.3857 12.8755L23.3857 12.8701ZM17.5154 20.3515C19.1007 18.6558 20.7372 17.0373 22.4733 15.552C21.7686 17.2581 21.0134 18.9387 20.2193 20.6008C16.533 24.7888 12.8898 29.0123 9.28545 33.272C8.96255 33.6536 8.66313 34.0086 8.37856 34.3459C7.1972 35.7463 6.27197 36.843 4.98714 38.2834C6.07185 36.2091 7.33555 34.0007 8.19678 32.5394C8.77768 31.5538 9.36388 30.5707 9.95509 29.5901C11.7018 27.4172 13.4174 25.2153 15.1044 22.9903C15.8961 22.101 16.7015 21.2221 17.5154 20.3515ZM2.8756 43.0235C2.87513 43.0279 2.87502 43.03 2.87508 43.0301C2.87511 43.0301 2.87521 43.0293 2.87533 43.0278C2.87541 43.0267 2.87551 43.0253 2.8756 43.0235ZM52.316 6.60826C52.316 6.60835 52.3152 6.61086 52.3132 6.61598C52.3149 6.61081 52.316 6.60816 52.316 6.60826ZM56.9536 13.1771C56.9536 13.1774 56.9479 13.1816 56.9371 13.1883C56.9483 13.1801 56.9537 13.1767 56.9536 13.1771ZM75.9555 3.35533C75.9554 3.35549 75.9524 3.35831 75.9464 3.36322C75.9525 3.35761 75.9555 3.35517 75.9555 3.35533Z" fill="#00A0E9"/>
<rect x="26.5555" y="19.7095" width="52.0911" height="69.5087" rx="7.5" fill="white" stroke="black" stroke-width="5"/>
<rect x="40.1025" y="28.4184" width="52.0911" height="69.5087" rx="7.5" fill="white" stroke="black" stroke-width="5"/>
</svg>
