<?xml version="1.0" standalone="no"?>
<!DOCTYPE svg PUBLIC "-//W3C//DTD SVG 1.1//EN" "http://www.w3.org/Graphics/SVG/1.1/DTD/svg11.dtd">
<svg version="1.1" xmlns="http://www.w3.org/2000/svg" viewBox="0 0 496.4445424458936 496.4445424458929" width="992.8890848917872" height="992.8890848917858"><!-- svg-source:excalidraw --><metadata></metadata><defs><style class="style-fonts">
      </style></defs><g stroke-linecap="round"><g transform="translate(42 10) rotate(0 206.2222712229468 238.22227122294646)" fill-rule="evenodd"><path d="M0 0 L412.44 0 L426.44 2 L436.44 8 L442.44 18 L444.44 32 L444.44 444.44 L442.44 458.44 L436.44 468.44 L426.44 474.44 L412.44 476.44 L345.72 384.85 L355.03 368.24 L360.19 352.48 L366.15 318.53 L367.32 302.82 L366.08 302.87 L364.89 275.62 L361.97 247.58 L357.79 224.11 L353.52 208.77 L355.4 208.25 L338.13 190.67 L315.07 173.69 L314.76 175.13 L292.62 171.65 L265.03 171.78 L264.96 170.52 L242.73 183.55 L219.74 202.49 L194.69 171.39 L192.95 170.29 L185.85 174.31 L176.81 184.57 L169.52 198.82 L163.79 215.87 L159.44 234.54 L154.46 270.15 L149.68 269.69 L152.24 299.36 L151.63 313.26 L153.43 313.11 L156.9 338.57 L161.28 360.25 L111.95 380.81 L111.95 187 L110.87 179.45 L107.63 174.06 L102.24 170.82 L94.69 169.74 L88.13 145.74 L98.22 140.02 L107.01 128.85 L110.78 114.84 L110.86 112.39 L108.88 100.4 L101.63 88.03 L92.39 80.88 L85.93 78.37 L79.12 77.35 L67.81 79.04 L61.52 82.02 L55.96 86.33 L47.92 98.13 L45.16 109.95 L47.06 124.38 L52.77 134.93 L61.52 142.76 L67.81 145.74 L74.53 147.26 L81.41 147.26 L88.13 145.74 L94.69 169.74 L60.17 169.74 L52.61 170.82 L47.22 174.06 L43.98 179.45 L42.91 187 L42.91 380.81 L43.98 388.36 L47.22 393.75 L52.61 396.99 L60.17 398.07 L94.69 398.07 L102.24 396.99 L107.63 393.75 L110.87 388.36 L111.95 380.81 L161.28 360.25 L168.7 382.86 L174.31 392.2 L170.09 395.65 L176.22 393.93 L178.57 396.04 L177.85 393.47 L189.35 387.29 L197.99 379.03 L204.74 369.19 L209.83 358.44 L214.44 343.88 L217.48 327.6 L222.19 285.4 L225.6 271.97 L234.76 250.58 L241.48 240.13 L255.99 225 L271.46 238.4 L279.37 249.19 L285.56 260.7 L290.19 271.93 L296.44 294.34 L299.72 330.04 L303.24 347.55 L307.53 361.68 L312.29 372.8 L318.79 383.52 L326.13 391.51 L332.65 395.65 L345.72 384.85 L412.44 476.44 L0 476.44 L-14 474.44 L-24 468.44 L-30 458.44 L-32 444.44 L-32 32 L-30 18 L-24 8 L-14 2 L0 0" stroke="none" stroke-width="0" fill="#0072b1" fill-rule="evenodd"></path><path d="M0 0 C155.69 0, 311.38 0, 412.44 0 M0 0 C105.12 0, 210.24 0, 412.44 0 M412.44 0 C416.4 0.57, 420.36 1.13, 426.44 2 M412.44 0 C415.33 0.41, 418.21 0.82, 426.44 2 M426.44 2 C430.36 4.35, 434.28 6.7, 436.44 8 M426.44 2 C429.12 3.61, 431.8 5.21, 436.44 8 M436.44 8 C438.04 10.66, 439.64 13.32, 442.44 18 M436.44 8 C437.91 10.45, 439.38 12.9, 442.44 18 M442.44 18 C443.05 22.26, 443.66 26.53, 444.44 32 M442.44 18 C442.92 21.35, 443.4 24.69, 444.44 32 M444.44 32 C444.44 166.36, 444.44 300.72, 444.44 444.44 M444.44 32 C444.44 182.93, 444.44 333.86, 444.44 444.44 M444.44 444.44 C443.75 449.34, 443.05 454.23, 442.44 458.44 M444.44 444.44 C443.89 448.29, 443.35 452.14, 442.44 458.44 M442.44 458.44 C440.18 462.23, 437.91 466.01, 436.44 468.44 M442.44 458.44 C440.84 461.12, 439.24 463.79, 436.44 468.44 M436.44 468.44 C432.68 470.71, 428.91 472.97, 426.44 474.44 M436.44 468.44 C434.29 469.74, 432.14 471.03, 426.44 474.44 M426.44 474.44 C422.86 474.96, 419.27 475.47, 412.44 476.44 M426.44 474.44 C422.52 475.01, 418.59 475.57, 412.44 476.44 M412.44 476.44 C395.63 453.36, 378.82 430.28, 345.72 384.85 M412.44 476.44 C396.82 455, 381.2 433.56, 345.72 384.85 M345.72 384.85 C348.59 379.74, 351.45 374.62, 355.03 368.24 M345.72 384.85 C349.19 378.66, 352.66 372.46, 355.03 368.24 M355.03 368.24 C356.35 364.2, 357.67 360.17, 360.19 352.48 M355.03 368.24 C356.27 364.44, 357.51 360.65, 360.19 352.48 M360.19 352.48 C362.56 338.98, 364.93 325.49, 366.15 318.53 M360.19 352.48 C362.25 340.76, 364.3 329.05, 366.15 318.53 M366.15 318.53 C366.49 314.05, 366.82 309.56, 367.32 302.82 M366.15 318.53 C366.48 314.17, 366.8 309.8, 367.32 302.82 M367.32 302.82 C366.94 302.83, 366.56 302.85, 366.08 302.87 M367.32 302.82 C367.03 302.83, 366.74 302.84, 366.08 302.87 M366.08 302.87 C365.78 295.98, 365.48 289.09, 364.89 275.62 M366.08 302.87 C365.7 294.07, 365.31 285.27, 364.89 275.62 M364.89 275.62 C363.94 266.54, 363 257.47, 361.97 247.58 M364.89 275.62 C364 267.1, 363.11 258.57, 361.97 247.58 M361.97 247.58 C360.77 240.87, 359.58 234.15, 357.79 224.11 M361.97 247.58 C360.76 240.82, 359.56 234.06, 357.79 224.11 M357.79 224.11 C356.65 220.03, 355.52 215.94, 353.52 208.77 M357.79 224.11 C356.66 220.05, 355.53 215.99, 353.52 208.77 M353.52 208.77 C354.14 208.6, 354.76 208.43, 355.4 208.25 M353.52 208.77 C353.93 208.66, 354.35 208.55, 355.4 208.25 M355.4 208.25 C350.93 203.71, 346.47 199.16, 338.13 190.67 M355.4 208.25 C351.03 203.81, 346.67 199.37, 338.13 190.67 M338.13 190.67 C330.28 184.89, 322.42 179.1, 315.07 173.69 M338.13 190.67 C331.27 185.61, 324.4 180.56, 315.07 173.69 M315.07 173.69 C314.97 174.19, 314.86 174.68, 314.76 175.13 M315.07 173.69 C315 174.04, 314.92 174.38, 314.76 175.13 M314.76 175.13 C308.21 174.1, 301.66 173.07, 292.62 171.65 M314.76 175.13 C309.49 174.3, 304.23 173.48, 292.62 171.65 M292.62 171.65 C285 171.69, 277.39 171.72, 265.03 171.78 M292.62 171.65 C286.12 171.68, 279.62 171.71, 265.03 171.78 M265.03 171.78 C265 171.3, 264.98 170.81, 264.96 170.52 M265.03 171.78 C265.01 171.42, 264.99 171.05, 264.96 170.52 M264.96 170.52 C257.58 174.85, 250.2 179.18, 242.73 183.55 M264.96 170.52 C258.75 174.17, 252.53 177.81, 242.73 183.55 M242.73 183.55 C237.8 187.62, 232.87 191.68, 219.74 202.49 M242.73 183.55 C237.33 188.01, 231.92 192.46, 219.74 202.49 M219.74 202.49 C212.23 193.17, 204.73 183.85, 194.69 171.39 M219.74 202.49 C213.53 194.78, 207.31 187.06, 194.69 171.39 M194.69 171.39 C194.33 171.16, 193.97 170.94, 192.95 170.29 M194.69 171.39 C194 170.95, 193.31 170.52, 192.95 170.29 M192.95 170.29 C190.94 171.43, 188.93 172.57, 185.85 174.31 M192.95 170.29 C191.16 171.3, 189.38 172.31, 185.85 174.31 M185.85 174.31 C182.27 178.38, 178.68 182.44, 176.81 184.57 M185.85 174.31 C183.87 176.56, 181.89 178.8, 176.81 184.57 M176.81 184.57 C174.6 188.89, 172.39 193.22, 169.52 198.82 M176.81 184.57 C175.1 187.91, 173.39 191.26, 169.52 198.82 M169.52 198.82 C168.15 202.9, 166.78 206.98, 163.79 215.87 M169.52 198.82 C167.82 203.87, 166.13 208.91, 163.79 215.87 M163.79 215.87 C162.5 221.39, 161.22 226.91, 159.44 234.54 M163.79 215.87 C162.15 222.9, 160.51 229.93, 159.44 234.54 M159.44 234.54 C158.43 241.76, 157.42 248.99, 154.46 270.15 M159.44 234.54 C157.71 246.88, 155.99 259.22, 154.46 270.15 M154.46 270.15 C152.97 270, 151.48 269.86, 149.68 269.69 M154.46 270.15 C153.07 270.01, 151.68 269.88, 149.68 269.69 M149.68 269.69 C150.63 280.72, 151.58 291.74, 152.24 299.36 M149.68 269.69 C150.26 276.41, 150.84 283.13, 152.24 299.36 M152.24 299.36 C152.05 303.77, 151.85 308.19, 151.63 313.26 M152.24 299.36 C152.11 302.48, 151.97 305.6, 151.63 313.26 M151.63 313.26 C152.07 313.22, 152.52 313.18, 153.43 313.11 M151.63 313.26 C152.22 313.21, 152.8 313.16, 153.43 313.11 M153.43 313.11 C154.81 323.21, 156.18 333.31, 156.9 338.57 M153.43 313.11 C154.34 319.74, 155.24 326.38, 156.9 338.57 M156.9 338.57 C158.39 345.92, 159.88 353.28, 161.28 360.25 M156.9 338.57 C158.51 346.56, 160.13 354.54, 161.28 360.25 M161.28 360.25 C144.13 367.4, 126.97 374.54, 111.95 380.81 M161.28 360.25 C145.72 366.73, 130.16 373.22, 111.95 380.81 M111.95 380.81 C111.95 306.2, 111.95 231.59, 111.95 187 M111.95 380.81 C111.95 339.4, 111.95 298, 111.95 187 M111.95 187 C111.64 184.86, 111.33 182.71, 110.87 179.45 M111.95 187 C111.58 184.44, 111.21 181.87, 110.87 179.45 M110.87 179.45 C109.8 177.68, 108.74 175.91, 107.63 174.06 M110.87 179.45 C110.04 178.08, 109.22 176.71, 107.63 174.06 M107.63 174.06 C106.36 173.3, 105.09 172.54, 102.24 170.82 M107.63 174.06 C105.91 173.03, 104.19 171.99, 102.24 170.82 M102.24 170.82 C99.72 170.46, 97.21 170.1, 94.69 169.74 M102.24 170.82 C100.59 170.59, 98.95 170.35, 94.69 169.74 M94.69 169.74 C92.41 161.42, 90.14 153.1, 88.13 145.74 M94.69 169.74 C92.9 163.19, 91.11 156.64, 88.13 145.74 M88.13 145.74 C91.93 143.59, 95.72 141.44, 98.22 140.02 M88.13 145.74 C91.82 143.65, 95.52 141.55, 98.22 140.02 M98.22 140.02 C100.67 136.91, 103.12 133.79, 107.01 128.85 M98.22 140.02 C100.46 137.17, 102.71 134.32, 107.01 128.85 M107.01 128.85 C107.96 125.33, 108.9 121.81, 110.78 114.84 M107.01 128.85 C108.12 124.71, 109.24 120.57, 110.78 114.84 M110.78 114.84 C110.8 114.33, 110.81 113.82, 110.86 112.39 M110.78 114.84 C110.81 113.97, 110.84 113.1, 110.86 112.39 M110.86 112.39 C110.13 107.98, 109.4 103.57, 108.88 100.4 M110.86 112.39 C110.19 108.36, 109.52 104.32, 108.88 100.4 M108.88 100.4 C107.23 97.58, 105.58 94.77, 101.63 88.03 M108.88 100.4 C106.74 96.76, 104.61 93.12, 101.63 88.03 M101.63 88.03 C98.39 85.52, 95.15 83.02, 92.39 80.88 M101.63 88.03 C98.36 85.5, 95.08 82.96, 92.39 80.88 M92.39 80.88 C90.17 80.01, 87.95 79.15, 85.93 78.37 M92.39 80.88 C90.9 80.3, 89.4 79.72, 85.93 78.37 M85.93 78.37 C84.29 78.12, 82.66 77.88, 79.12 77.35 M85.93 78.37 C83.56 78.01, 81.19 77.66, 79.12 77.35 M79.12 77.35 C75.95 77.82, 72.78 78.3, 67.81 79.04 M79.12 77.35 C75.09 77.95, 71.07 78.55, 67.81 79.04 M67.81 79.04 C65.97 79.92, 64.13 80.79, 61.52 82.02 M67.81 79.04 C66.23 79.79, 64.65 80.54, 61.52 82.02 M61.52 82.02 C59.99 83.21, 58.46 84.4, 55.96 86.33 M61.52 82.02 C59.88 83.3, 58.24 84.57, 55.96 86.33 M55.96 86.33 C52.91 90.81, 49.86 95.28, 47.92 98.13 M55.96 86.33 C53.29 90.26, 50.61 94.18, 47.92 98.13 M47.92 98.13 C47.14 101.5, 46.35 104.87, 45.16 109.95 M47.92 98.13 C47.07 101.79, 46.21 105.45, 45.16 109.95 M45.16 109.95 C45.9 115.55, 46.64 121.15, 47.06 124.38 M45.16 109.95 C45.91 115.64, 46.66 121.33, 47.06 124.38 M47.06 124.38 C49.23 128.37, 51.39 132.37, 52.77 134.93 M47.06 124.38 C48.74 127.48, 50.42 130.58, 52.77 134.93 M52.77 134.93 C54.72 136.67, 56.66 138.4, 61.52 142.76 M52.77 134.93 C56.04 137.85, 59.31 140.78, 61.52 142.76 M61.52 142.76 C63.67 143.78, 65.82 144.79, 67.81 145.74 M61.52 142.76 C63.89 143.88, 66.25 145, 67.81 145.74 M67.81 145.74 C70.49 146.35, 73.17 146.96, 74.53 147.26 M67.81 145.74 C70.1 146.26, 72.39 146.78, 74.53 147.26 M74.53 147.26 C76.43 147.26, 78.32 147.26, 81.41 147.26 M74.53 147.26 C76.74 147.26, 78.94 147.26, 81.41 147.26 M81.41 147.26 C83.12 146.88, 84.82 146.49, 88.13 145.74 M81.41 147.26 C83.44 146.8, 85.47 146.34, 88.13 145.74 M88.13 145.74 C90.74 155.3, 93.35 164.86, 94.69 169.74 M88.13 145.74 C90.26 153.54, 92.39 161.33, 94.69 169.74 M94.69 169.74 C83.07 169.74, 71.45 169.74, 60.17 169.74 M94.69 169.74 C80.95 169.74, 67.21 169.74, 60.17 169.74 M60.17 169.74 C58.34 170, 56.52 170.27, 52.61 170.82 M60.17 169.74 C58.5 169.98, 56.83 170.22, 52.61 170.82 M52.61 170.82 C51.47 171.51, 50.33 172.2, 47.22 174.06 M52.61 170.82 C50.99 171.8, 49.36 172.78, 47.22 174.06 M47.22 174.06 C46.4 175.43, 45.58 176.8, 43.98 179.45 M47.22 174.06 C46.33 175.55, 45.44 177.03, 43.98 179.45 M43.98 179.45 C43.7 181.43, 43.42 183.41, 42.91 187 M43.98 179.45 C43.74 181.14, 43.5 182.82, 42.91 187 M42.91 187 C42.91 264.45, 42.91 341.9, 42.91 380.81 M42.91 187 C42.91 262.56, 42.91 338.11, 42.91 380.81 M42.91 380.81 C43.21 382.94, 43.52 385.07, 43.98 388.36 M42.91 380.81 C43.23 383.11, 43.56 385.41, 43.98 388.36 M43.98 388.36 C45.14 390.29, 46.3 392.22, 47.22 393.75 M43.98 388.36 C44.95 389.97, 45.92 391.58, 47.22 393.75 M47.22 393.75 C48.77 394.68, 50.31 395.61, 52.61 396.99 M47.22 393.75 C48.43 394.48, 49.64 395.2, 52.61 396.99 M52.61 396.99 C55.06 397.34, 57.5 397.69, 60.17 398.07 M52.61 396.99 C55.42 397.39, 58.23 397.79, 60.17 398.07 M60.17 398.07 C70.57 398.07, 80.98 398.07, 94.69 398.07 M60.17 398.07 C73.73 398.07, 87.3 398.07, 94.69 398.07 M94.69 398.07 C96.26 397.84, 97.83 397.62, 102.24 396.99 M94.69 398.07 C96.3 397.84, 97.92 397.61, 102.24 396.99 M102.24 396.99 C104.24 395.79, 106.24 394.58, 107.63 393.75 M102.24 396.99 C104.17 395.83, 106.1 394.67, 107.63 393.75 M107.63 393.75 C108.4 392.47, 109.17 391.19, 110.87 388.36 M107.63 393.75 C108.48 392.34, 109.33 390.92, 110.87 388.36 M110.87 388.36 C111.25 385.68, 111.63 382.99, 111.95 380.81 M110.87 388.36 C111.3 385.34, 111.73 382.33, 111.95 380.81 M111.95 380.81 C129.43 373.52, 146.91 366.24, 161.28 360.25 M111.95 380.81 C131.24 372.77, 150.53 364.73, 161.28 360.25 M161.28 360.25 C163.72 367.67, 166.15 375.09, 168.7 382.86 M161.28 360.25 C163.75 367.76, 166.21 375.27, 168.7 382.86 M168.7 382.86 C169.91 384.87, 171.12 386.89, 174.31 392.2 M168.7 382.86 C170.42 385.72, 172.14 388.58, 174.31 392.2 M174.31 392.2 C172.7 393.52, 171.1 394.83, 170.09 395.65 M174.31 392.2 C173.02 393.26, 171.73 394.31, 170.09 395.65 M170.09 395.65 C172.51 394.97, 174.93 394.29, 176.22 393.93 M170.09 395.65 C172.24 395.05, 174.38 394.44, 176.22 393.93 M176.22 393.93 C176.73 394.39, 177.25 394.85, 178.57 396.04 M176.22 393.93 C176.7 394.36, 177.18 394.79, 178.57 396.04 M178.57 396.04 C178.29 395.06, 178.02 394.08, 177.85 393.47 M178.57 396.04 C178.35 395.27, 178.14 394.51, 177.85 393.47 M177.85 393.47 C182.02 391.22, 186.2 388.98, 189.35 387.29 M177.85 393.47 C180.67 391.95, 183.48 390.44, 189.35 387.29 M189.35 387.29 C192.62 384.16, 195.89 381.04, 197.99 379.03 M189.35 387.29 C192.47 384.31, 195.58 381.33, 197.99 379.03 M197.99 379.03 C200.37 375.56, 202.75 372.09, 204.74 369.19 M197.99 379.03 C200.56 375.28, 203.14 371.52, 204.74 369.19 M204.74 369.19 C206.31 365.89, 207.87 362.58, 209.83 358.44 M204.74 369.19 C206.69 365.07, 208.64 360.96, 209.83 358.44 M209.83 358.44 C211.4 353.49, 212.96 348.55, 214.44 343.88 M209.83 358.44 C211.21 354.08, 212.59 349.71, 214.44 343.88 M214.44 343.88 C215.06 340.56, 215.68 337.24, 217.48 327.6 M214.44 343.88 C215.18 339.92, 215.92 335.95, 217.48 327.6 M217.48 327.6 C218.86 315.23, 220.24 302.86, 222.19 285.4 M217.48 327.6 C218.52 318.25, 219.57 308.91, 222.19 285.4 M222.19 285.4 C222.94 282.45, 223.69 279.5, 225.6 271.97 M222.19 285.4 C223.06 281.96, 223.94 278.53, 225.6 271.97 M225.6 271.97 C229.24 263.48, 232.87 254.99, 234.76 250.58 M225.6 271.97 C228.37 265.51, 231.14 259.05, 234.76 250.58 M234.76 250.58 C236.25 248.27, 237.73 245.97, 241.48 240.13 M234.76 250.58 C237.23 246.74, 239.71 242.89, 241.48 240.13 M241.48 240.13 C245.12 236.34, 248.76 232.55, 255.99 225 M241.48 240.13 C244.84 236.63, 248.2 233.13, 255.99 225 M255.99 225 C262.03 230.23, 268.07 235.46, 271.46 238.4 M255.99 225 C261.58 229.85, 267.18 234.69, 271.46 238.4 M271.46 238.4 C273.59 241.31, 275.73 244.23, 279.37 249.19 M271.46 238.4 C273.31 240.93, 275.17 243.46, 279.37 249.19 M279.37 249.19 C280.78 251.8, 282.18 254.42, 285.56 260.7 M279.37 249.19 C280.94 252.11, 282.51 255.03, 285.56 260.7 M285.56 260.7 C286.89 263.92, 288.22 267.14, 290.19 271.93 M285.56 260.7 C286.81 263.72, 288.06 266.75, 290.19 271.93 M290.19 271.93 C292.34 279.65, 294.49 287.36, 296.44 294.34 M290.19 271.93 C292.04 278.54, 293.88 285.16, 296.44 294.34 M296.44 294.34 C297.58 306.71, 298.71 319.08, 299.72 330.04 M296.44 294.34 C297.19 302.52, 297.94 310.71, 299.72 330.04 M299.72 330.04 C300.67 334.8, 301.63 339.56, 303.24 347.55 M299.72 330.04 C301.02 336.54, 302.33 343.04, 303.24 347.55 M303.24 347.55 C304.58 351.96, 305.92 356.38, 307.53 361.68 M303.24 347.55 C304.7 352.38, 306.17 357.21, 307.53 361.68 M307.53 361.68 C308.74 364.52, 309.96 367.35, 312.29 372.8 M307.53 361.68 C308.49 363.92, 309.45 366.16, 312.29 372.8 M312.29 372.8 C313.99 375.61, 315.7 378.42, 318.79 383.52 M312.29 372.8 C314.69 376.75, 317.09 380.71, 318.79 383.52 M318.79 383.52 C320.66 385.55, 322.52 387.58, 326.13 391.51 M318.79 383.52 C321.29 386.24, 323.78 388.96, 326.13 391.51 M326.13 391.51 C328.01 392.71, 329.9 393.91, 332.65 395.65 M326.13 391.51 C327.48 392.37, 328.82 393.23, 332.65 395.65 M332.65 395.65 C337.17 391.92, 341.7 388.18, 345.72 384.85 M332.65 395.65 C337.56 391.6, 342.47 387.54, 345.72 384.85 M345.72 384.85 C365.96 412.63, 386.19 440.4, 412.44 476.44 M345.72 384.85 C364.8 411.05, 383.88 437.24, 412.44 476.44 M412.44 476.44 C279.42 476.44, 146.39 476.44, 0 476.44 M412.44 476.44 C276.19 476.44, 139.94 476.44, 0 476.44 M0 476.44 C-3.2 475.99, -6.4 475.53, -14 474.44 M0 476.44 C-5.2 475.7, -10.4 474.96, -14 474.44 M-14 474.44 C-16.91 472.7, -19.83 470.95, -24 468.44 M-14 474.44 C-16.62 472.87, -19.24 471.3, -24 468.44 M-24 468.44 C-25.24 466.38, -26.48 464.32, -30 458.44 M-24 468.44 C-26.18 464.82, -28.35 461.19, -30 458.44 M-30 458.44 C-30.55 454.58, -31.1 450.72, -32 444.44 M-30 458.44 C-30.52 454.78, -31.05 451.11, -32 444.44 M-32 444.44 C-32 282.8, -32 121.15, -32 32 M-32 444.44 C-32 323.41, -32 202.37, -32 32 M-32 32 C-31.57 28.99, -31.14 25.98, -30 18 M-32 32 C-31.49 28.42, -30.98 24.83, -30 18 M-30 18 C-27.86 14.43, -25.71 10.85, -24 8 M-30 18 C-28.01 14.68, -26.02 11.37, -24 8 M-24 8 C-20.37 5.82, -16.73 3.64, -14 2 M-24 8 C-21.95 6.77, -19.91 5.54, -14 2 M-14 2 C-9.94 1.42, -5.87 0.84, 0 0 M-14 2 C-8.68 1.24, -3.36 0.48, 0 0 M0 0 C0 0, 0 0, 0 0 M0 0 C0 0, 0 0, 0 0" stroke="transparent" stroke-width="1" fill="none"></path></g></g><mask></mask><g stroke-linecap="round" transform="translate(10 10) rotate(0 238.2222712229468 238.22227122294646)"><path d="M32 0 C161.68 -0.97, 289.45 -0.72, 444.44 0 M32 0 C154.84 2.02, 278.02 1.01, 444.44 0 M444.44 0 C466.15 -1.95, 477.02 12.15, 476.44 32 M444.44 0 C465.01 0.59, 476.06 9.8, 476.44 32 M476.44 32 C477.55 188.16, 477.52 342.53, 476.44 444.44 M476.44 32 C474.03 120.79, 474.02 209.41, 476.44 444.44 M476.44 444.44 C478.39 465.34, 464.15 477.43, 444.44 476.44 M476.44 444.44 C474.43 465.47, 464.71 478.16, 444.44 476.44 M444.44 476.44 C316.95 478.21, 191.41 477.58, 32 476.44 M444.44 476.44 C300.55 475.43, 156.18 475.52, 32 476.44 M32 476.44 C10.8 475.81, -0.97 464.59, 0 444.44 M32 476.44 C12.52 477.21, 1.68 466.45, 0 444.44 M0 444.44 C0.39 344.68, 0.43 243.41, 0 32 M0 444.44 C-1.71 281.56, -1.62 118.95, 0 32 M0 32 C-1.23 11.3, 11.02 -0.26, 32 0 M0 32 C-1.1 12.79, 8.54 1.06, 32 0" stroke="#868e96" stroke-width="2" fill="none"></path></g><g stroke-linecap="round" transform="translate(87.08012862130795 87.32727839497875) rotate(0 32.88944363021176 35.063952299977814)"><path d="M45.7 3.27 C51.61 5.73, 59.15 12.68, 62.3 18.65 C65.45 24.61, 65.61 32.34, 64.6 39.05 C63.59 45.77, 60.31 53.92, 56.27 58.92 C52.23 63.92, 46.44 67.73, 40.34 69.06 C34.24 70.38, 25.71 69.51, 19.65 66.87 C13.59 64.24, 7.12 59.14, 3.96 53.24 C0.81 47.33, -0.04 38.25, 0.71 31.45 C1.46 24.66, 4.25 17.53, 8.48 12.46 C12.71 7.38, 19.37 2.42, 26.1 1.02 C32.83 -0.39, 44.35 3.01, 48.85 4.01 C53.36 5.02, 53.3 6.51, 53.14 7.05 M22 2.29 C27.26 -0.06, 36.05 -0.6, 42.23 1.69 C48.42 3.98, 55.16 10.33, 59.1 16.03 C63.04 21.72, 65.72 29.43, 65.87 35.88 C66.03 42.33, 63.83 49.29, 60.05 54.72 C56.27 60.15, 49.55 66.08, 43.21 68.46 C36.87 70.83, 28.42 71.31, 22.02 68.97 C15.61 66.64, 8.38 60.14, 4.78 54.45 C1.18 48.77, 0.2 41.51, 0.42 34.87 C0.64 28.24, 2.28 20.27, 6.1 14.64 C9.92 9, 20.56 3.29, 23.32 1.08 C26.09 -1.14, 22.35 0.61, 22.69 1.33" stroke="#868e96" stroke-width="2" fill="none"></path></g><g stroke-linecap="round" transform="translate(84.9056199515419 179.74389686003678) rotate(0 34.5203251325363 114.16170516271848)"><path d="M17.26 0 C29.7 -0.83, 40.87 0.07, 51.78 0 M17.26 0 C30.79 -0.63, 44.24 1.08, 51.78 0 M51.78 0 C62.62 0.51, 68.71 5, 69.04 17.26 M51.78 0 C65.04 1.19, 69.49 5.63, 69.04 17.26 M69.04 17.26 C67.2 92.14, 70.37 169.34, 69.04 211.06 M69.04 17.26 C68.7 72.24, 66.92 128.15, 69.04 211.06 M69.04 211.06 C67.28 222.3, 62.35 229.82, 51.78 228.32 M69.04 211.06 C69.19 222.96, 64.61 226.17, 51.78 228.32 M51.78 228.32 C40.91 226.67, 27.04 228.82, 17.26 228.32 M51.78 228.32 C40.64 228.15, 28.89 227.87, 17.26 228.32 M17.26 228.32 C7.37 228.99, 1.46 223.16, 0 211.06 M17.26 228.32 C4.43 228.02, -0.77 222.77, 0 211.06 M0 211.06 C1.67 150.72, -2.07 87.12, 0 17.26 M0 211.06 C-0.49 149.3, 0.3 86.77, 0 17.26 M0 17.26 C-0.95 7.6, 3.91 0.92, 17.26 0 M0 17.26 C0.62 7.6, 4.87 -1.66, 17.26 0" stroke="#868e96" stroke-width="2" fill="none"></path></g><g stroke-linecap="round"><g transform="translate(234.94671816540063 180.2875240274784) rotate(0 -21.05355158994871 70.83285829519923)"><path d="M-0.32 -0.82 C-7.16 1.8, -33.38 -8.05, -40.01 15.72 C-46.65 39.49, -39.94 120.78, -40.12 141.79 M1.71 1.36 C-5.36 3.67, -33.85 -9.38, -40.85 14.14 C-47.84 37.66, -40.28 121.13, -40.26 142.49" stroke="#868e96" stroke-width="2" fill="none"></path></g></g><mask></mask><g stroke-linecap="round"><g transform="translate(220.56721340905074 406.0360866399533) rotate(0 -14.54919704685949 -63.238168723646595)"><path d="M0.22 1.04 C-3.51 -1.46, -17.88 5.61, -22.69 -15.82 C-27.5 -37.25, -27.69 -109.24, -28.67 -127.52 M-1.13 0.54 C-4.88 -1.79, -18.31 6.32, -23.01 -14.9 C-27.71 -36.13, -28.46 -108.04, -29.31 -126.81" stroke="#868e96" stroke-width="2" fill="none"></path></g></g><mask></mask><g stroke-linecap="round"><g transform="translate(212.09268284026325 405.6508807050086) rotate(0 26.207398170442048 -41.29167847058284)"><path d="M1.19 -1.18 C9.22 -3.03, 40.43 3.37, 48.38 -10.03 C56.32 -23.42, 48.92 -69.53, 48.88 -81.55 M0.36 0.81 C8.23 -0.41, 39.56 4.93, 47.54 -9.1 C55.53 -23.14, 48.19 -71.46, 48.3 -83.42" stroke="#868e96" stroke-width="2" fill="none"></path></g></g><mask></mask><g stroke-linecap="round"><g transform="translate(261.3990425132081 322.0611928219696) rotate(0 16.800459204130448 -42.958198767595604)"><path d="M0.22 -1.17 C0.28 -11.29, -4.49 -47.64, 1.5 -61.9 C7.5 -76.16, 30.38 -82.48, 36.19 -86.75 M-1.12 0.83 C-1.3 -9.51, -5.32 -49.21, 0.74 -63.56 C6.79 -77.91, 29.25 -81.42, 35.22 -85.27" stroke="#868e96" stroke-width="2" fill="none"></path></g></g><mask></mask><g stroke-linecap="round"><g transform="translate(297.9936063329717 235.77506339431602) rotate(0 19.657541197119713 34.75054372722968)"><path d="M0.35 0.89 C5.51 3.96, 24.54 6.05, 31.19 17.26 C37.84 28.46, 38.55 59.46, 40.25 68.11 M-0.93 0.31 C4.02 3.1, 23.31 3.82, 30.03 15.3 C36.75 26.78, 37.37 60.58, 39.38 69.19" stroke="#868e96" stroke-width="2" fill="none"></path></g></g><mask></mask><g stroke-linecap="round"><g transform="translate(338.44022950218437 302.4156901397805) rotate(0 17.974611595586225 51.6397501822122)"><path d="M-0.4 0.31 C-0.04 15.49, -3.76 74.74, 2.5 92 C8.75 109.25, 31.46 101.99, 37.12 103.86 M1.59 -0.58 C1.74 14.7, -4.43 76.23, 1.44 93.29 C7.32 110.36, 30.94 100.01, 36.84 101.84" stroke="#868e96" stroke-width="2" fill="none"></path></g></g><mask></mask><g stroke-linecap="round"><g transform="translate(374.64958738700284 404.8804688351188) rotate(0 17.242482157047675 -46.29172201342817)"><path d="M-0.2 -0.45 C5.41 -2.39, 27.42 3.96, 33.27 -11.32 C39.12 -26.6, 34.48 -78.66, 34.9 -92.13 M-1.76 -1.74 C3.8 -4.05, 26.8 1.73, 32.8 -13.12 C38.81 -27.97, 34.22 -77.85, 34.26 -90.85" stroke="#868e96" stroke-width="2" fill="none"></path></g></g><mask></mask><g stroke-linecap="round"><g transform="translate(408.1625037272081 314.7422800580166) rotate(0 -5.791151574294645 -49.236066019934924)"><path d="M0.91 0.62 C0.79 -10.61, 1.28 -51.24, -0.92 -67.86 C-3.13 -84.48, -10.3 -93.73, -12.33 -99.09 M-0.07 -0.1 C-0.31 -11.1, 0.32 -50.07, -1.75 -66.36 C-3.82 -82.65, -10.67 -92.31, -12.5 -97.82" stroke="#868e96" stroke-width="2" fill="none"></path></g></g><mask></mask><g stroke-linecap="round"><g transform="translate(397.3952193463167 218.25415244377018) rotate(0 -20.173211092196993 -17.8204249914902)"><path d="M0.23 -0.07 C-2.7 -3.78, -10 -15.78, -16.71 -21.7 C-23.41 -27.61, -35.87 -33.58, -39.99 -35.58 M-1.11 -1.15 C-4.18 -4.72, -10.47 -14.6, -17.05 -20.21 C-23.63 -25.81, -36.46 -32.2, -40.58 -34.79" stroke="#868e96" stroke-width="2" fill="none"></path></g></g><mask></mask><g stroke-linecap="round"><g transform="translate(359.3779030347566 185.70902560129844) rotate(0 -27.76605593166505 -4.1691371436367035)"><path d="M1.15 -0.09 C-3.3 -1.45, -16.81 -7.75, -26.45 -8.21 C-36.09 -8.67, -51.69 -3.57, -56.68 -2.85 M0.29 -1.19 C-4.3 -2.43, -18.11 -6.62, -27.22 -7.21 C-36.33 -7.8, -49.47 -5.45, -54.36 -4.73" stroke="#868e96" stroke-width="2" fill="none"></path></g></g><mask></mask><g stroke-linecap="round"><g transform="translate(306.960088120333 180.52484610426745) rotate(0 -22.83822487766554 15.997281110073914)"><path d="M0.33 -1.01 C-4.46 1.26, -19.87 8.09, -27.59 13.56 C-35.32 19.03, -42.94 28.84, -46.01 31.79 M-0.95 1.07 C-5.49 3.02, -18.36 6.58, -25.46 11.91 C-32.55 17.23, -40.07 29.66, -43.53 33.01" stroke="#868e96" stroke-width="2" fill="none"></path></g></g><mask></mask><g stroke-linecap="round"><g transform="translate(261.7425225073414 211.34191311439554) rotate(0 -11.392049789258408 -13.663335921300018)"><path d="M-1.1 0.89 C-1.28 1.03, 3.34 5.08, -0.79 -0.18 C-4.92 -5.44, -22.02 -25.66, -25.87 -30.67 M0.53 0.31 C0.7 0.73, 5.49 6.27, 1.5 1.26 C-2.49 -3.75, -18.7 -24.64, -23.4 -29.73" stroke="#868e96" stroke-width="2" fill="none"></path></g></g><mask></mask></svg>