<?xml version="1.0" standalone="no"?>
<!DOCTYPE svg PUBLIC "-//W3C//DTD SVG 1.1//EN" "http://www.w3.org/Graphics/SVG/1.1/DTD/svg11.dtd">
<svg version="1.1" xmlns="http://www.w3.org/2000/svg" viewBox="0 0 496.4445424458936 496.4445424458929" width="992.8890848917872" height="992.8890848917858"><!-- svg-source:excalidraw --><metadata></metadata><defs><style class="style-fonts">
      </style></defs><g stroke-linecap="round" transform="translate(10 10) rotate(0 238.2222712229468 238.22227122294646)"><path d="M32 0 C138.55 -2.85, 243.55 -2.14, 444.44 0 M32 0 C168.82 1.28, 306.54 1.46, 444.44 0 M444.44 0 C466.8 0.9, 475.59 11.99, 476.44 32 M444.44 0 C466.83 -0.95, 477.04 9.56, 476.44 32 M476.44 32 C478.63 177.24, 477.27 320.02, 476.44 444.44 M476.44 32 C477.89 193.83, 478.28 356.07, 476.44 444.44 M476.44 444.44 C477.95 464.18, 466.17 474.49, 444.44 476.44 M476.44 444.44 C477.43 467.92, 466.39 478.64, 444.44 476.44 M444.44 476.44 C340.93 479, 235.54 478.91, 32 476.44 M444.44 476.44 C327.45 477.15, 209.84 477.08, 32 476.44 M32 476.44 C9.46 476.41, -0.28 466.15, 0 444.44 M32 476.44 C10.8 474.18, 1.69 463.56, 0 444.44 M0 444.44 C1.22 313.53, 1.08 180.45, 0 32 M0 444.44 C1.42 360.36, 1.04 275.94, 0 32 M0 32 C-0.04 9.21, 11.34 0.2, 32 0 M0 32 C-1.28 11.11, 10.98 -1.23, 32 0" stroke="#868e96" stroke-width="2" fill="none"></path></g><g stroke-linecap="round" transform="translate(87.08012862130795 87.3272783949792) rotate(0 32.88944363021176 35.063952299977814)"><path d="M38.9 -0.2 C45.2 0.39, 53.05 5.75, 57.41 10.76 C61.77 15.76, 64.5 22.82, 65.05 29.82 C65.6 36.83, 63.92 46.68, 60.72 52.78 C57.51 58.88, 51.37 63.73, 45.81 66.44 C40.26 69.15, 33.41 70.17, 27.39 69.06 C21.37 67.94, 14.11 64.89, 9.67 59.78 C5.23 54.67, 1.74 45.17, 0.77 38.38 C-0.21 31.58, 0.71 24.96, 3.81 19 C6.91 13.04, 13.11 5.51, 19.35 2.62 C25.6 -0.27, 37.57 1.72, 41.31 1.65 C45.05 1.58, 41.97 1.58, 41.8 2.18 M40.22 1.29 C46.18 1.91, 51.46 5.62, 55.77 10.62 C60.08 15.61, 65.12 24.31, 66.07 31.28 C67.02 38.25, 64.8 46.44, 61.47 52.42 C58.14 58.4, 51.79 64.37, 46.09 67.15 C40.39 69.94, 33.39 70.28, 27.27 69.16 C21.16 68.04, 14.13 65.42, 9.39 60.42 C4.65 55.42, -0.16 46.09, -1.14 39.16 C-2.12 32.23, 0.28 24.72, 3.52 18.83 C6.77 12.94, 12.28 6.81, 18.34 3.81 C24.41 0.82, 36.7 1.37, 39.91 0.84 C43.12 0.31, 37.72 -0.05, 37.6 0.65" stroke="#868e96" stroke-width="2" fill="none"></path></g><g stroke-linecap="round" transform="translate(84.9056199515419 179.743896860037) rotate(0 34.5203251325363 114.16170516271848)"><path d="M17.26 0 C24.04 0.55, 31.61 1.59, 51.78 0 M17.26 0 C29.4 -0.06, 43.77 -1.14, 51.78 0 M51.78 0 C64.34 -0.27, 69.95 6.72, 69.04 17.26 M51.78 0 C63.92 -1.13, 67.72 5.97, 69.04 17.26 M69.04 17.26 C66.69 81.02, 67.87 144.61, 69.04 211.06 M69.04 17.26 C67.35 64.77, 68.71 110.87, 69.04 211.06 M69.04 211.06 C67.2 222.68, 63.06 228.36, 51.78 228.32 M69.04 211.06 C69.64 223.41, 62.56 226.56, 51.78 228.32 M51.78 228.32 C39.16 226.22, 23.99 227.93, 17.26 228.32 M51.78 228.32 C40.06 227.66, 27.18 228.45, 17.26 228.32 M17.26 228.32 C5.39 227.67, 1.6 221.79, 0 211.06 M17.26 228.32 C4.87 227.54, 1.43 220.56, 0 211.06 M0 211.06 C-1.57 155.63, -3.15 95.53, 0 17.26 M0 211.06 C0.4 133.69, 0.61 55.91, 0 17.26 M0 17.26 C-0.03 6.91, 5.16 1.26, 17.26 0 M0 17.26 C-2.12 6.49, 6.03 0.74, 17.26 0" stroke="#868e96" stroke-width="2" fill="none"></path></g><g stroke-linecap="round"><g transform="translate(234.9467181654005 180.28752402747864) rotate(0 -21.99765535928077 71.35362445238934)"><path d="M0.57 0.68 C-6.43 3, -34.25 -10.29, -41.3 13.54 C-48.34 37.37, -41.84 122.22, -41.7 143.66 M-0.58 -0.01 C-7.29 2.45, -32.13 -9.14, -39.15 14.48 C-46.16 38.09, -42.56 120.28, -42.67 141.68" stroke="#868e96" stroke-width="2" fill="none"></path></g></g><mask></mask><g stroke-linecap="round"><g transform="translate(220.56721340905074 406.03608663995374) rotate(0 -13.73008486579198 -63.444659728914644)"><path d="M0.9 0.19 C-2.87 -2.06, -18.69 6.24, -23.51 -14.68 C-28.34 -35.6, -27.22 -106.85, -28.04 -125.32 M-0.09 -0.75 C-3.91 -2.7, -19.56 7.9, -24.27 -13.16 C-28.98 -34.22, -27.75 -108.04, -28.36 -127.12" stroke="#868e96" stroke-width="2" fill="none"></path></g></g><mask></mask><g stroke-linecap="round"><g transform="translate(212.09268284026336 405.65088070500906) rotate(0 25.582374817603977 -41.659413957328184)"><path d="M0.59 0.18 C8.7 -1.44, 39.59 3.93, 47.7 -9.7 C55.82 -23.33, 49.11 -69.33, 49.29 -81.6 M-0.56 -0.76 C7.44 -2.26, 38.28 5.19, 46.52 -8.6 C54.77 -22.39, 48.48 -71.16, 48.92 -83.5" stroke="#868e96" stroke-width="2" fill="none"></path></g></g><mask></mask><g stroke-linecap="round"><g transform="translate(261.3990425132082 322.0611928219698) rotate(0 17.33330904307718 -44.16918193518427)"><path d="M0.45 0.18 C0.93 -10.15, -4.13 -48.33, 1.89 -62.77 C7.91 -77.21, 30.72 -82.51, 36.58 -86.48 M-0.78 -0.78 C-0.3 -10.83, -4.77 -46.6, 1.33 -61.22 C7.43 -75.84, 29.78 -83.91, 35.8 -88.51" stroke="#868e96" stroke-width="2" fill="none"></path></g></g><mask></mask><g stroke-linecap="round"><g transform="translate(297.9936063329717 235.77506339431625) rotate(0 20.28338243204223 34.123563170384045)"><path d="M-1.19 0.47 C3.74 3.09, 23.92 5.04, 30.69 16.25 C37.45 27.45, 37.64 58.92, 39.41 67.71 M0.38 -0.33 C5.6 2.38, 26.03 5.93, 32.93 17.42 C39.82 28.9, 40.25 59.76, 41.76 68.58" stroke="#868e96" stroke-width="2" fill="none"></path></g></g><mask></mask><g stroke-linecap="round"><g transform="translate(338.44022950218437 302.41569013978074) rotate(0 17.413918116462128 51.47087183274391)"><path d="M0.48 -0.81 C0.89 14.5, -2.81 74.62, 3.14 92.04 C9.08 109.46, 30.66 101.67, 36.15 103.72 M-0.73 1.38 C-0.49 16.84, -3.6 76.66, 2.42 93.37 C8.43 110.07, 29.71 100.13, 35.35 101.63" stroke="#868e96" stroke-width="2" fill="none"></path></g></g><mask></mask><g stroke-linecap="round"><g transform="translate(374.64958738700307 404.880468835119) rotate(0 17.157726665895552 -45.843088867142114)"><path d="M0.1 0.07 C5.46 -1.96, 26.98 2.73, 32.7 -12.58 C38.41 -27.88, 33.91 -78.38, 34.39 -91.76 M-1.31 -0.94 C3.88 -2.79, 26.13 3.52, 31.93 -11.37 C37.72 -26.26, 32.75 -76.82, 33.47 -90.28" stroke="#868e96" stroke-width="2" fill="none"></path></g></g><mask></mask><g stroke-linecap="round"><g transform="translate(408.1625037272079 314.74228005801683) rotate(0 -6.378665877025128 -50.015012342524074)"><path d="M0.92 -0.1 C0.69 -11.2, 0.02 -51.23, -2.32 -67.56 C-4.66 -83.89, -11.42 -92.75, -13.11 -98.07 M-0.06 -1.21 C0.15 -12.6, 2.05 -53.1, -0.22 -69.56 C-2.49 -86.01, -11.77 -95.08, -13.67 -99.93" stroke="#868e96" stroke-width="2" fill="none"></path></g></g><mask></mask><g stroke-linecap="round"><g transform="translate(397.3952193463165 218.25415244377018) rotate(0 -20.96147795452987 -17.387659065754065)"><path d="M-0.06 0.81 C-3.06 -2.77, -11.81 -15.76, -18.6 -21.51 C-25.4 -27.26, -37.16 -31.69, -40.83 -33.7 M-1.55 0.19 C-4.11 -3.18, -9.57 -13.97, -16.28 -19.93 C-23 -25.89, -37.82 -32.98, -41.86 -35.59" stroke="#868e96" stroke-width="2" fill="none"></path></g></g><mask></mask><g stroke-linecap="round"><g transform="translate(359.3779030347566 185.70902560129866) rotate(0 -26.532398419456626 -3.7273517177656004)"><path d="M-0.45 0.12 C-4.73 -1.05, -17.33 -6.58, -26.32 -7.41 C-35.32 -8.25, -49.44 -5.6, -54.43 -4.9 M1.52 -0.86 C-2.83 -1.81, -17.68 -5.43, -27.03 -5.99 C-36.38 -6.54, -49.69 -4.28, -54.58 -4.18" stroke="#868e96" stroke-width="2" fill="none"></path></g></g><mask></mask><g stroke-linecap="round"><g transform="translate(306.960088120333 180.52484610426768) rotate(0 -23.187984634518386 16.223052403360157)"><path d="M0.31 0.21 C-4.06 2.01, -19.53 6.35, -27.19 11.85 C-34.86 17.34, -42.8 29.9, -45.68 33.17 M-0.98 -0.72 C-4.88 1.73, -17.23 7.59, -24.85 12.95 C-32.47 18.31, -43.52 28.24, -46.69 31.45" stroke="#868e96" stroke-width="2" fill="none"></path></g></g><mask></mask><g stroke-linecap="round"><g transform="translate(261.74252250734116 211.34191311439577) rotate(0 -11.756271057156141 -13.527559659470171)"><path d="M-0.44 -0.59 C-0.48 -0.4, 5.04 6.02, 0.89 1.11 C-3.26 -3.79, -21.08 -24.9, -25.34 -30.01 M1.53 1.72 C1.31 1.6, 5.03 4.65, 0.4 -0.42 C-4.22 -5.5, -22.15 -24.08, -26.25 -28.72" stroke="#868e96" stroke-width="2" fill="none"></path></g></g><mask></mask></svg>